<svg t="1680651455966" class="icon" viewBox="0 0 1024 1024" version="1.1" xmlns="http://www.w3.org/2000/svg" p-id="8062" width="200" height="200"><path d="M507.2896 723.8656c-29.696 0-92.928-32.2048-143.3088-84.1728-48.7424-50.2784-106.8544-139.4176-106.8544-278.4768 0-137.9328 112.2304-250.1632 250.1632-250.1632s250.1632 112.2304 250.1632 250.1632c0 142.4896-57.8048 231.424-106.2912 280.8832-55.2448 56.4224-117.4016 81.7664-143.872 81.7664z m0-551.424c-104.0896 0-188.7232 84.6848-188.7232 188.7232 0 218.0608 163.6864 297.0112 188.928 301.1584 11.1104-1.536 58.112-19.5584 102.4-65.9456 39.3216-41.1648 86.1696-115.4048 86.1696-235.2128-0.0512-104.0384-84.6848-188.7232-188.7744-188.7232z" fill="#474747" p-id="8063"></path><path d="M507.2896 481.536c-64.6656 0-117.248-52.5824-117.248-117.248 0-64.6656 52.5824-117.248 117.248-117.248s117.248 52.5824 117.248 117.248c0 64.6144-52.5824 117.248-117.248 117.248z m0-173.1072c-30.7712 0-55.808 25.0368-55.808 55.808s25.0368 55.808 55.808 55.808 55.808-25.0368 55.808-55.808-25.0368-55.808-55.808-55.808z" fill="#4F95FC" p-id="8064"></path><path d="M851.968 892.4672H173.312c-35.84 0-68.4544-16.64-87.1936-44.4928-16.5888-24.6784-19.7632-54.4256-8.704-81.664l89.6-220.5184a30.73024 30.73024 0 1 1 56.9344 23.1424l-89.6 220.5184c-4.1984 10.3936-0.8192 18.8928 2.7648 24.2176 7.3216 10.8544 20.8384 17.3568 36.1984 17.3568H851.968c15.2576 0 29.2352-6.7584 36.4032-17.6128 3.584-5.4272 6.8608-14.0288 2.4064-24.4736l-94.8224-221.44a30.7712 30.7712 0 0 1 16.128-40.3456 30.7712 30.7712 0 0 1 40.3456 16.128l94.8224 221.44c11.7248 27.3408 8.96 57.3952-7.6288 82.4832-18.688 28.3648-51.456 45.2608-87.6544 45.2608z" fill="#474747" p-id="8065"></path></svg>