<?xml version="1.0" standalone="no"?><!DOCTYPE svg PUBLIC "-//W3C//DTD SVG 1.1//EN" "http://www.w3.org/Graphics/SVG/1.1/DTD/svg11.dtd"><svg t="1680569079395" class="icon" viewBox="0 0 1024 1024" version="1.1" xmlns="http://www.w3.org/2000/svg" p-id="2615" id="mx_n_1680569079395" xmlns:xlink="http://www.w3.org/1999/xlink" width="200" height="200"><path d="M666.312 487.408C654.32 467.6 646.92 442.056 632.84 432c-56-40-69.744-95.336-69.744-133.368 0-79.48 73.992-144 165.136-144 91.136 0 165.128 64.52 165.128 144 0 31.992-11 71.944-30.08 108.24 17.56-8.92 30.08-18.4 30.08 2.392v440.568a57.296 57.296 0 0 1-57.264 57.264H290.104a57.296 57.296 0 0 1-57.264-57.264V409.264A57.28 57.28 0 0 1 290.104 352H541.92l74.92 88 49.472 47.408z m72.896 19.104L712.84 532l-22.416-21.48c14.072 4.888 27.056-3.888 43.952-3.888 1.624 0 3.232-0.04 4.832-0.12z" fill="#466adf" p-id="2616" data-spm-anchor-id="a313x.7781069.0.i7" class="selected"></path><path d="M923.224 285.328c3.44 5.696 5.744 11.8 8.016 17.712 3.232 10.912 5.544 22.288 5.544 33.424v492.416c0 31.472-14.032 60.536-36.104 81.544-21.6 20.56-51.744 33.44-85.296 33.44H214.768a125.44 125.44 0 0 1-85.784-33.44 112.28 112.28 0 0 1-35.192-81.544V336.464a110.84 110.84 0 0 1 35.2-81.072 123.856 123.856 0 0 1 85.776-33.888h292.48c10.096-31.48 28.528-59.224 52.192-81.744l1.136-0.864c84.64-79.04 216.136-78.656 300.312 0.864 38.64 36.728 62.336 87.008 62.336 143.168v2.4zM497.12 283.12H214.768c-14.712 0-28.872 5.632-39.56 15.736a51.08 51.08 0 0 0-16.56 37.608v492.416a49.456 49.456 0 0 0 16.56 37.384c9.896 9.84 24.368 15.736 39.56 15.736h600.616a58.48 58.48 0 0 0 40.008-15.736 51.08 51.08 0 0 0 16.56-37.384V415.16a210.8 210.8 0 0 1-81.88 55.736l-64.832 75.384a19.856 19.856 0 0 1-27.392 2.856 10.64 10.64 0 0 1-2.504-2.848l-0.464-0.224-64.832-75.168a211.056 211.056 0 0 1-95.192-72.56 194.768 194.768 0 0 1-37.736-115.2v-0.016z m336.64-117.136a178.856 178.856 0 0 0-123.256-48.96c-47.816 0-91.256 18.384-122.544 48.096l-1.152 0.864c-31.488 30.176-50.592 71.28-50.592 116.944a157.28 157.28 0 0 0 30.816 94.4c19.544 27.344 48.304 48.744 81.648 61 3.336 0.984 6.296 2.96 8.48 5.68l53.344 61.632 52.672-61.632a17.624 17.624 0 0 1 8.512-5.68 178.008 178.008 0 0 0 82.304-60.992 161.68 161.68 0 0 0 30.576-94.408c0-45.68-19.52-86.768-50.8-116.944z" p-id="2617"></path><path d="M578.544 516.568a19.872 19.872 0 0 1 27.584 0c7.344 6.776 7.344 18.576 0 25.784l-53.36 50.936L663.84 698.848 787.8 581.04a21.256 21.256 0 0 1 27.592 0 17.616 17.616 0 0 1 0 26.24L691.216 725.072l41.848 39.56c7.344 7.2 7.344 19.44 0 26.224a20.272 20.272 0 0 1-27.592 0l-54.264-51.576-0.488-0.216v-0.432l-0.448-0.216-0.464-0.424-0.68-0.224v-0.472L525.184 619.52 301.68 831.728a19.68 19.68 0 0 1-27.12 0c-8.064-7.424-8.064-19.024 0-26.224L497.616 593.28 405.376 506.08 256.16 648.136c-7.36 6.8-19.776 6.8-27.592 0-7.36-7.648-7.36-19.224 0-26.224l149.248-142.08L283.28 389.8c-7.36-7.2-7.36-19.016 0-25.776 7.84-7.672 20.224-7.672 27.36 0l107.856 102.048 0.912 0.448 0.464 0.424v0.448l105.312 99.68 53.36-50.496v-0.008z" p-id="2618"></path><path d="M771.768 177.928L590.704 283.2a13.464 13.464 0 0 0 2.328 24.352l68.744 23.936v39.376a8.616 8.616 0 1 0 17.216 0v-33.36l73.104 25.552a13.464 13.464 0 0 0 17.784-10.88l22-160.776a13.464 13.464 0 0 0-20.112-13.464zM750 210.56l-82.624 104.56-60.688-21.08L750 210.552z m-65.416 110.592l87.376-110.592-18.512 134.272-68.864-23.68z" p-id="2619"></path></svg>