<svg t="1683987667875" class="icon" viewBox="0 0 1024 1024" version="1.1" xmlns="http://www.w3.org/2000/svg" p-id="8999" width="200" height="200"><path d="M96 213.333333A117.333333 117.333333 0 0 1 213.333333 96h597.333334A117.333333 117.333333 0 0 1 928 213.333333v384A117.333333 117.333333 0 0 1 810.666667 714.666667H213.333333A117.333333 117.333333 0 0 1 96 597.333333V213.333333zM213.333333 160c-29.44 0-53.333333 23.893333-53.333333 53.333333v384c0 29.44 23.893333 53.333333 53.333333 53.333334h597.333334c29.44 0 53.333333-23.893333 53.333333-53.333334V213.333333c0-29.44-23.893333-53.333333-53.333333-53.333333H213.333333z" p-id="9000"></path><path d="M341.333333 853.333333a42.666667 42.666667 0 1 1-85.333333 0 42.666667 42.666667 0 0 1 85.333333 0zM554.666667 853.333333a42.666667 42.666667 0 1 1-85.333334 0 42.666667 42.666667 0 0 1 85.333334 0zM768 853.333333a42.666667 42.666667 0 1 1-85.333333 0 42.666667 42.666667 0 0 1 85.333333 0z" p-id="9001"></path></svg>