<svg t="1687181150466" class="icon" viewBox="0 0 1024 1024" version="1.1" xmlns="http://www.w3.org/2000/svg" p-id="2262" width="200" height="200"><path d="M873.909015 142.185058H150.090985c-40.867561 0-74.072455 44.516451-74.072455 99.249792v429.839173c0 54.733341 33.204894 99.249792 74.072455 99.249792h61.78786c4.743556 0 9.000594 3.040741 10.33852 7.541038l31.13719 98.398385c2.067704 6.568001 9.730372 9.487112 15.690225 6.081482l194.850695-110.682979c1.702815-0.973037 3.52726-1.459556 5.351704-1.459555H873.909015c40.867561 0 74.072455-44.516451 74.072455-99.249793V241.43485c-0.12163-54.854971-33.204894-99.249792-74.072455-99.249792zM557.915192 605.472384h-379.4845c-19.217484 0-33.326523-15.325336-33.326523-36.610524 0-21.163559 13.987409-36.610524 33.326523-36.610524h379.4845c19.217484 0 33.326523 15.446965 33.326523 36.610524 0 21.163559-13.987409 36.610524-33.326523 36.610524z m185.241953-125.886685h-559.496378c-21.650077 0-38.434969-16.298373-38.434968-37.097042s16.906521-37.097042 38.434968-37.097043h559.496378c21.650077 0 38.434969 16.298373 38.434968 37.097043s-16.906521 37.097042-38.434968 37.097042z m0-124.18387h-559.496378c-21.650077 0-38.434969-15.811854-38.434968-36.245635s16.906521-36.245635 38.434968-36.245635h559.496378c21.650077 0 38.434969 15.933484 38.434968 36.245635 0 20.312151-16.906521 36.245635-38.434968 36.245635z" p-id="2263"></path></svg>