<svg t="1686846258019" class="icon" viewBox="0 0 1024 1024" version="1.1" xmlns="http://www.w3.org/2000/svg" p-id="2432" width="200" height="200"><path d="M85.333333 341.333333V181.333333a53.393333 53.393333 0 0 1 53.333334-53.333333h117.333333v64a21.333333 21.333333 0 0 0 42.666667 0v-64h213.333333v64a21.333333 21.333333 0 0 0 42.666667 0v-64h213.333333v64a21.333333 21.333333 0 0 0 42.666667 0v-64h117.333333a53.393333 53.393333 0 0 1 53.333333 53.333333v160z m469.333334-234.666666a21.333333 21.333333 0 0 0-42.666667 0v21.333333h42.666667z m-256 0a21.333333 21.333333 0 0 0-42.666667 0v21.333333h42.666667z m512 0a21.333333 21.333333 0 0 0-42.666667 0v21.333333h42.666667z m170.666666 277.333333v501.333333a53.393333 53.393333 0 0 1-53.333333 53.333334H138.666667a53.393333 53.393333 0 0 1-53.333334-53.333334V384zM256 746.666667a21.333333 21.333333 0 1 0-21.333333 21.333333 21.333333 21.333333 0 0 0 21.333333-21.333333z m0-128a21.333333 21.333333 0 1 0-21.333333 21.333333 21.333333 21.333333 0 0 0 21.333333-21.333333z m0-128a21.333333 21.333333 0 1 0-21.333333 21.333333 21.333333 21.333333 0 0 0 21.333333-21.333333z m128 256a21.333333 21.333333 0 1 0-21.333333 21.333333 21.333333 21.333333 0 0 0 21.333333-21.333333z m0-128a21.333333 21.333333 0 1 0-21.333333 21.333333 21.333333 21.333333 0 0 0 21.333333-21.333333z m0-128a21.333333 21.333333 0 1 0-21.333333 21.333333 21.333333 21.333333 0 0 0 21.333333-21.333333z m128 256a21.333333 21.333333 0 1 0-21.333333 21.333333 21.333333 21.333333 0 0 0 21.333333-21.333333z m0-128a21.333333 21.333333 0 1 0-21.333333 21.333333 21.333333 21.333333 0 0 0 21.333333-21.333333z m0-128a21.333333 21.333333 0 1 0-21.333333 21.333333 21.333333 21.333333 0 0 0 21.333333-21.333333z m170.666667 256a21.333333 21.333333 0 0 0-21.333334-21.333334h-42.666666a21.333333 21.333333 0 0 0 0 42.666667h42.666666a21.333333 21.333333 0 0 0 21.333334-21.333333z m0-128a21.333333 21.333333 0 0 0-21.333334-21.333334h-42.666666a21.333333 21.333333 0 0 0 0 42.666667h42.666666a21.333333 21.333333 0 0 0 21.333334-21.333333z m0-128a21.333333 21.333333 0 0 0-21.333334-21.333334h-42.666666a21.333333 21.333333 0 0 0 0 42.666667h42.666666a21.333333 21.333333 0 0 0 21.333334-21.333333z m170.666666 128a21.333333 21.333333 0 0 0-21.333333-21.333334h-42.666667a21.333333 21.333333 0 0 0 0 42.666667h42.666667a21.333333 21.333333 0 0 0 21.333333-21.333333z m0-128a21.333333 21.333333 0 0 0-21.333333-21.333334h-42.666667a21.333333 21.333333 0 0 0 0 42.666667h42.666667a21.333333 21.333333 0 0 0 21.333333-21.333333z" fill="#5C5C66" p-id="2433"></path></svg>