<svg t="1685609356072" class="icon" viewBox="0 0 1024 1024" version="1.1" xmlns="http://www.w3.org/2000/svg" p-id="12628" width="200" height="200"><path d="M0 160v704c0 35.3 28.7 64 64 64h896c35.3 0 64-28.7 64-64V160c0-35.3-28.7-64-64-64H64c-35.3 0-64 28.7-64 64z m304 704H80c-8.8 0-16-7.2-16-16V688c0-8.8 7.2-16 16-16h224c8.8 0 16 7.2 16 16v160c0 8.8-7.2 16-16 16z m0-256H80c-8.8 0-16-7.2-16-16V432c0-8.8 7.2-16 16-16h224c8.8 0 16 7.2 16 16v160c0 8.8-7.2 16-16 16z m0-256H80c-8.8 0-16-7.2-16-16V176c0-8.8 7.2-16 16-16h224c8.8 0 16 7.2 16 16v160c0 8.8-7.2 16-16 16z m320 512H400c-8.8 0-16-7.2-16-16V688c0-8.8 7.2-16 16-16h224c8.8 0 16 7.2 16 16v160c0 8.8-7.2 16-16 16z m0-256H400c-8.8 0-16-7.2-16-16V432c0-8.8 7.2-16 16-16h224c8.8 0 16 7.2 16 16v160c0 8.8-7.2 16-16 16z m0-256H400c-8.8 0-16-7.2-16-16V176c0-8.8 7.2-16 16-16h224c8.8 0 16 7.2 16 16v160c0 8.8-7.2 16-16 16z m320 512H720c-8.8 0-16-7.2-16-16V688c0-8.8 7.2-16 16-16h224c8.8 0 16 7.2 16 16v160c0 8.8-7.2 16-16 16z m0-256H720c-8.8 0-16-7.2-16-16V432c0-8.8 7.2-16 16-16h224c8.8 0 16 7.2 16 16v160c0 8.8-7.2 16-16 16z m0-256H720c-8.8 0-16-7.2-16-16V176c0-8.8 7.2-16 16-16h224c8.8 0 16 7.2 16 16v160c0 8.8-7.2 16-16 16z" p-id="12629"></path></svg>