<svg t="1685372599763" class="icon" viewBox="0 0 1024 1024" version="1.1" xmlns="http://www.w3.org/2000/svg" p-id="3526" width="200" height="200"><path d="M1016.992 652l-256-320A32 32 0 0 0 736 320H288a32 32 0 0 0-24.992 12l-256 320A32 32 0 0 0 0 672v288a64 64 0 0 0 64 64h896a64 64 0 0 0 64-64v-288c0-7.264-2.464-14.304-7.008-20zM960 704h-224l-128 128h-192l-128-128H64v-20.768L303.392 384H720.64l239.392 299.232V704z" p-id="3527"></path><path d="M736 512H288a32 32 0 0 1 0-64h448a32 32 0 0 1 0 64zM800 640H224a32 32 0 0 1 0-64h576a32 32 0 0 1 0 64z" p-id="3528"></path></svg>