<svg t="1679415418857" class="icon" viewBox="0 0 1024 1024" version="1.1" xmlns="http://www.w3.org/2000/svg" p-id="6469" width="200" height="200"><path d="M745.565091 531.618909c-11.054545-118.597818-111.336727-211.479273-233.565091-211.479273-7.121455 0-14.173091 0.442182-21.108364 1.047273C491.054545 181.317818 491.217455 23.272727 490.635636 23.272727 761.669818 23.272727 1024 262.516364 1024 531.456c0 0.535273-118.597818 0.349091-278.434909 0.162909z" fill="#2F2F31" p-id="6470"></path><path d="M448.116364 329.122909a232.448 232.448 0 0 0-33.256728 12.101818l-0.116363 0.069818c-21.108364 9.588364-40.494545 22.155636-57.693091 37.213091l-1.536 1.396364a232.494545 232.494545 0 0 0-70.283637 114.338909l-0.535272 2.094546a229.166545 229.166545 0 0 0-6.283637 35.723636C151.575273 532.014545 0 531.968 0 532.177455 0 286.254545 200.564364 86.877091 448 86.877091c0.162909 0 0.139636 124.765091 0.116364 242.245818z" fill="#999999" p-id="6471" data-spm-anchor-id="a313x.7781069.0.i0" class="selected"></path><path d="M278.411636 598.178909c1.163636 12.334545 3.421091 24.296727 6.4 35.979636l1.070546 4.096a231.889455 231.889455 0 0 0 52.992 95.464728c0.465455 0.465455 0.861091 0.930909 1.28 1.396363 8.192 8.773818 16.965818 16.919273 26.391273 24.343273a230.586182 230.586182 0 0 0 22.528 15.592727c0.721455 0.465455 1.466182 0.884364 2.210909 1.326546 7.447273 4.468364 15.127273 8.541091 23.086545 12.171636l0.930909 0.465455c17.105455 7.68 35.258182 13.405091 54.225455 16.872727 0.069818 70.237091 0 131.234909-0.186182 131.234909-188.509091 0-341.341091-151.901091-341.341091-339.269818 0 0.395636 72.378182 0.418909 150.411636 0.325818zM512 809.890909c11.310545 0 22.341818-1.070545 33.210182-2.606545 1.28-0.162909 2.56-0.372364 3.84-0.581819a234.821818 234.821818 0 0 0 34.746182-8.02909l0.674909-0.232728a234.635636 234.635636 0 0 0 62.417454-31.138909c63.232 59.554909 126.580364 119.156364 134.818909 126.673455C703.441455 960.535273 623.104 1000.727273 512 1000.727273c-0.395636 0-0.395636-97.326545-0.279273-190.836364H512z" fill="#2F2F31" p-id="6472"></path><path d="M723.758545 676.677818c0.605091-1.326545 1.303273-2.606545 1.885091-3.956363a230.981818 230.981818 0 0 0 7.796364-19.432728c1.629091-4.654545 3.118545-9.355636 4.468364-14.126545 0.535273-1.954909 1.024-3.956364 1.512727-5.911273 1.233455-4.887273 2.350545-9.751273 3.258182-14.708364 0.325818-1.768727 0.558545-3.560727 0.837818-5.352727 0.814545-5.306182 1.629091-10.658909 2.094545-16.081454 115.781818-0.302545 235.729455-0.349091 235.729455 0.744727 0 114.897455-43.776 219.624727-115.665455 298.612364 0 10.868364-95.650909-75.869091-184.32-158.62691a233.588364 233.588364 0 0 0 42.402909-61.160727z" fill="#999999" p-id="6473"></path><path d="M512 372.363636a186.181818 186.181818 0 1 1 0 372.363637 186.181818 186.181818 0 0 1 0-372.363637z" fill="#00A2FF" p-id="6474"></path></svg>