<svg t="1686398529051" class="icon" viewBox="0 0 1024 1024" version="1.1" xmlns="http://www.w3.org/2000/svg" p-id="2478" width="200" height="200"><path d="M668.1 227.3H207.8C93.2 227.3 0 320.6 0 435.1v296.4c0 114.6 93.2 207.8 207.8 207.8H668c114.6 0 207.8-93.2 207.8-207.8V435.1c0.1-114.5-93.1-207.8-207.7-207.8z m139.8 504.2c0 77.1-62.7 139.8-139.8 139.8H207.8c-57.3 0-106.7-34.7-128.3-84.2l217.8-217.8 134.2 134.2c13.3 13.3 34.8 13.3 48.1 0l88.2-88.2 96.6 96.6c13.3 13.3 34.8 13.3 48.1 0 13.3-13.3 13.3-34.8 0-48.1L592 543.2c-13.3-13.3-34.8-13.3-48.1 0l-88.2 88.2-134.3-134.2c-13.3-13.3-34.8-13.3-48.1 0L68 702.6V435.1c0-77.1 62.7-139.8 139.8-139.8H668c77.1 0 139.8 62.7 139.8 139.8v296.4z" fill="#707070" p-id="2479"></path><path d="M627.440143 485.154298a53.1 53.1 0 1 0 75.093429-75.096051 53.1 53.1 0 1 0-75.093429 75.096051Z" fill="#707070" p-id="2480"></path><path d="M675.1 84.6h-288c-18.8 0-34 15.2-34 34s15.2 34 34 34h288c154.9 0 280.9 126 280.9 280.9v149.8c0 18.8 15.2 34 34 34s34-15.2 34-34V433.6c0-192.4-156.5-349-348.9-349z" fill="#707070" p-id="2481"></path></svg>