<svg t="1685032402465" class="icon" viewBox="0 0 1024 1024" version="1.1" xmlns="http://www.w3.org/2000/svg" p-id="19094" width="200" height="200"><path d="M838.4 320c0 12.8-12.8 25.6-25.6 25.6L211.2 345.6C192 345.6 185.6 332.8 185.6 320L185.6 262.4c0-12.8 12.8-25.6 25.6-25.6l601.6 0c12.8 0 25.6 12.8 25.6 25.6L838.4 320zM838.4 537.6c0 12.8-12.8 25.6-25.6 25.6L211.2 563.2C192 569.6 185.6 556.8 185.6 537.6L185.6 486.4c0-12.8 12.8-25.6 25.6-25.6l601.6 0c12.8 0 25.6 12.8 25.6 25.6L838.4 537.6zM838.4 761.6c0 12.8-12.8 25.6-25.6 25.6L211.2 787.2c-12.8 0-25.6-12.8-25.6-25.6L185.6 704c0-12.8 12.8-25.6 25.6-25.6l601.6 0c12.8 0 25.6 12.8 25.6 25.6L838.4 761.6z" p-id="19095"></path></svg>