<svg t="1685152284496" class="icon" viewBox="0 0 1024 1024" version="1.1" xmlns="http://www.w3.org/2000/svg" p-id="4123" width="200" height="200"><path d="M830.135922 0H193.864078C86.990291 0 0 86.990291 0 193.864078v636.271844c0 106.873786 86.990291 193.864078 193.864078 193.864078h263.45631c19.883495 0 37.281553-17.398058 37.281554-37.281553s-17.398058-37.281553-37.281554-37.281554H193.864078C126.757282 949.436893 74.563107 894.757282 74.563107 830.135922V193.864078C74.563107 129.242718 129.242718 74.563107 193.864078 74.563107h636.271844c67.106796 0 119.300971 54.679612 119.300971 119.300971v464.776699c-12.427184-4.970874-22.368932-7.456311-34.796116-7.456311h-82.019418c-94.446602 0-171.495146 77.048544-171.495145 171.495146v106.873786c0 52.194175 42.252427 94.446602 94.446602 94.446602h74.563106c106.873786 0 193.864078-86.990291 193.864078-193.864078V193.864078c0-106.873786-86.990291-193.864078-193.864078-193.864078z m119.300971 830.135922c0 67.106796-54.679612 119.300971-119.300971 119.300971h-74.563106c-9.941748 0-19.883495-7.456311-19.883496-19.883495v-106.873786c0-52.194175 42.252427-96.932039 96.932039-96.932039h82.019418c19.883495 0 34.796117 14.912621 34.796116 34.796116v69.592233z" fill="#221714" p-id="4124"></path><path d="M211.262136 295.76699h631.300971c19.883495 0 37.281553-17.398058 37.281553-37.281553s-17.398058-37.281553-37.281553-37.281554H211.262136c-19.883495-2.485437-37.281553 14.912621-37.281553 34.796117s17.398058 39.76699 37.281553 39.76699zM211.262136 531.883495h631.300971c19.883495 0 37.281553-17.398058 37.281553-37.281553s-17.398058-37.281553-37.281553-37.281554H211.262136c-19.883495 0-37.281553 17.398058-37.281553 37.281554s17.398058 37.281553 37.281553 37.281553zM584.07767 695.92233h-372.815534c-19.883495 0-37.281553 17.398058-37.281553 37.281553S191.378641 770.485437 211.262136 770.485437h372.815534c19.883495 0 37.281553-17.398058 37.281553-37.281554s-17.398058-37.281553-37.281553-37.281553z" fill="#221714" p-id="4125"></path></svg>