<?xml version="1.0" standalone="no"?><!DOCTYPE svg PUBLIC "-//W3C//DTD SVG 1.1//EN" "http://www.w3.org/Graphics/SVG/1.1/DTD/svg11.dtd"><svg t="1679241919155" class="icon" viewBox="0 0 1024 1024" version="1.1" xmlns="http://www.w3.org/2000/svg" p-id="5632" xmlns:xlink="http://www.w3.org/1999/xlink" width="200" height="200"><path d="M96 640a32 32 0 0 1 31.850667 28.928L128 672V896h224a32 32 0 0 1 31.850667 28.928L384 928a32 32 0 0 1-28.928 31.850667L352 960h-256a32 32 0 0 1-31.850667-28.928L64 928v-256A32 32 0 0 1 96 640z m832 0a32 32 0 0 1 31.850667 28.928L960 672v256a32 32 0 0 1-28.928 31.850667L928 960h-256a32 32 0 0 1-3.072-63.850667L672 896H896V672a32 32 0 0 1 28.928-31.850667L928 640z m0-160a32 32 0 0 1 0 64h-832a32 32 0 0 1 0-64h832zM352 64a32 32 0 0 1 3.072 63.850667L352 128H128v224a32 32 0 0 1-28.928 31.850667L96 384a32 32 0 0 1-31.850667-28.928L64 352v-256a32 32 0 0 1 28.928-31.850667L96 64h256z m576 0a32 32 0 0 1 31.850667 28.928L960 96v256a32 32 0 0 1-63.850667 3.072L896 352V128H672a32 32 0 0 1-31.850667-28.928L640 96a32 32 0 0 1 28.928-31.850667L672 64h256z" fill="#131415" p-id="5633"></path></svg>