<svg t="1685028647835" class="icon" viewBox="0 0 1024 1024" version="1.1" xmlns="http://www.w3.org/2000/svg" p-id="14671" width="200" height="200"><path d="M217.6 521.102222H199.111111v22.186667h17.066667A19.057778 19.057778 0 0 0 227.555556 540.444444a12.8 12.8 0 0 0 0-16.782222 13.653333 13.653333 0 0 0-9.955556-2.56zM224.995556 499.768889a9.102222 9.102222 0 0 0 2.844444-7.395556 8.817778 8.817778 0 0 0-2.56-6.826666 11.662222 11.662222 0 0 0-7.964444-1.991111H199.111111v19.057777h18.204445a13.084444 13.084444 0 0 0 7.68-2.844444z" p-id="14672"></path><path d="M444.871111 371.768889h-341.333333a56.888889 56.888889 0 0 0-56.888889 56.888889v170.666666a56.888889 56.888889 0 0 0 56.888889 56.888889h341.333333a56.888889 56.888889 0 0 0 56.888889-56.888889v-170.666666a56.888889 56.888889 0 0 0-56.888889-56.888889z m-195.982222 176.071111a25.031111 25.031111 0 0 1-9.671111 10.524444 28.444444 28.444444 0 0 1-9.955556 3.697778 110.648889 110.648889 0 0 1-18.204444 0H176.355556v-98.986666h43.235555a34.702222 34.702222 0 0 1 22.755556 6.257777 23.893333 23.893333 0 0 1 7.395555 19.342223 24.746667 24.746667 0 0 1-3.413333 13.368888 21.048889 21.048889 0 0 1-9.955556 8.248889 21.048889 21.048889 0 0 1 11.946667 7.964445 24.462222 24.462222 0 0 1 3.982222 14.506666 33.848889 33.848889 0 0 1-3.413333 15.075556z m50.631111-44.088889h-10.808889v32.142222a19.057778 19.057778 0 0 0 1.706667 9.671111 7.395556 7.395556 0 0 0 6.257778 2.275556h2.844444v15.36h-12.8a17.066667 17.066667 0 0 1-15.36-6.257778 54.328889 54.328889 0 0 1-3.982222-26.168889v-28.444444h-9.102222v-13.084445h8.817777v-21.048888h21.333334v21.048888h10.808889z m72.533333 59.164445h-21.333333v-36.977778a43.804444 43.804444 0 0 0-1.991111-16.497778 7.395556 7.395556 0 0 0-7.111111-3.697778 8.817778 8.817778 0 0 0-8.248889 4.266667 28.444444 28.444444 0 0 0-2.56 13.653333v39.537778h-21.333333v-73.955556h21.048888v10.24a23.324444 23.324444 0 0 1 8.248889-9.102222 21.902222 21.902222 0 0 1 11.662223-2.844444 19.911111 19.911111 0 0 1 16.782222 6.542222 34.417778 34.417778 0 0 1 5.12 21.048889zM651.946667 559.217778v-100.124445h42.951111a34.702222 34.702222 0 0 1 22.755555 6.257778 23.893333 23.893333 0 0 1 7.395556 19.342222 24.746667 24.746667 0 0 1-3.413333 13.368889 21.048889 21.048889 0 0 1-9.955556 8.248889 21.048889 21.048889 0 0 1 11.946667 7.964445 24.462222 24.462222 0 0 1 3.982222 14.506666 33.848889 33.848889 0 0 1-3.413333 15.36 25.031111 25.031111 0 0 1-9.671112 10.524445 28.444444 28.444444 0 0 1-9.955555 3.697777 110.648889 110.648889 0 0 1-18.204445 0z m21.617777-60.871111h18.204445a13.084444 13.084444 0 0 0 8.533333-2.275556 9.102222 9.102222 0 0 0 2.844445-7.395555 8.817778 8.817778 0 0 0-2.56-6.826667 11.662222 11.662222 0 0 0-7.964445-2.275556h-19.342222z m0 40.96h17.066667a19.057778 19.057778 0 0 0 11.377778-2.56 12.8 12.8 0 0 0 0-16.782223 13.653333 13.653333 0 0 0-9.386667-2.844444h-19.342222zM733.866667 500.053333v-14.506666h8.817777v-21.048889h21.333334v21.048889h10.808889v14.506666h-10.808889v31.857778a19.057778 19.057778 0 0 0 1.706666 9.671111 7.395556 7.395556 0 0 0 6.257778 2.275556h2.844445v15.36h-12.8a17.066667 17.066667 0 0 1-15.36-6.257778 54.328889 54.328889 0 0 1-3.982223-26.168889v-28.444444zM785.066667 559.217778v-73.955556h21.048889v10.24a23.324444 23.324444 0 0 1 8.248888-9.102222 21.902222 21.902222 0 0 1 10.524445-2.844444 19.911111 19.911111 0 0 1 16.782222 6.542222 34.417778 34.417778 0 0 1 5.12 21.048889v48.071111H824.888889v-37.262222a43.804444 43.804444 0 0 0-1.991111-16.497778 7.395556 7.395556 0 0 0-7.111111-3.697778 8.817778 8.817778 0 0 0-8.248889 4.266667 28.444444 28.444444 0 0 0-2.56 13.653333v39.537778z" p-id="14673"></path><path d="M920.462222 367.786667h-341.333333a56.888889 56.888889 0 0 0-56.888889 56.888889v170.666666a56.888889 56.888889 0 0 0 56.888889 56.888889h341.333333a56.888889 56.888889 0 0 0 56.888889-56.888889v-170.666666a56.888889 56.888889 0 0 0-56.888889-56.888889z m28.444445 227.555555a28.444444 28.444444 0 0 1-28.444445 28.444445h-341.333333a28.444444 28.444444 0 0 1-28.444445-28.444445v-170.666666a28.444444 28.444444 0 0 1 28.444445-28.444445h341.333333a28.444444 28.444444 0 0 1 28.444445 28.444445z" p-id="14674"></path></svg>