<svg t="1685545020713" class="icon" viewBox="0 0 1024 1024" version="1.1" xmlns="http://www.w3.org/2000/svg" p-id="2601" width="200" height="200"><path d="M22.134957 22.134949m489.946035 0l-0.073489 0q489.946035 0 489.946035 489.946035l0-0.073488q0 489.946035-489.946035 489.946035l0.073489 0q-489.946035 0-489.946035-489.946035l0 0.073488q0-489.946035 489.946035-489.946035Z" fill="#FFFFFF" p-id="2602"></path><path d="M512.080992 1024a511.992504 511.992504 0 1 1 511.919016-511.919016 512.506922 512.506922 0 0 1-511.919016 511.919016zM512.080992 44.181418A468.413983 468.413983 0 0 0 44.181426 512.080984 467.899566 467.899566 0 1 0 512.080992 44.181418z" fill="#888888" p-id="2603"></path><path d="M458.875513 565.065998V176.019304H563.008336v389.046694z" fill="#04BEBD" p-id="2604"></path><path d="M235.030361 462.549916h320.849616V566.68274H235.030361z" fill="#04BEBD" p-id="2605"></path></svg>