<svg t="1685724397075" class="icon" viewBox="0 0 1024 1024" version="1.1" xmlns="http://www.w3.org/2000/svg" p-id="2400" width="200" height="200"><path d="M880 816H304c-16 0-32 12.8-32 32s12.8 32 32 32h576c16 0 32-12.8 32-32s-12.8-32-32-32z m0-128H304c-16 0-32 12.8-32 32s12.8 32 32 32h576c16 0 32-12.8 32-32s-12.8-32-32-32z m0-544H144c-16 0-32 12.8-32 32v160c0 19.2 12.8 32 32 32h736c16 0 32-12.8 32-32V176c0-19.2-12.8-32-32-32z m-32 160H176v-96h672v96z m32 256H304c-16 0-32 12.8-32 32s12.8 32 32 32h576c16 0 32-12.8 32-32s-12.8-32-32-32z m0-128H304c-16 0-32 12.8-32 32s12.8 32 32 32h576c16 0 32-12.8 32-32s-12.8-32-32-32z" fill="#333333" p-id="2401"></path></svg>