<svg t="1686130195067" class="icon" viewBox="0 0 1024 1024" version="1.1" xmlns="http://www.w3.org/2000/svg" p-id="4622" width="200" height="200"><path d="M438.272 951.296c-4.096-1.024-5.632-2.048-6.656-2.56-0.512-5.12-1.024-23.04 0.512-84.992l0.512-10.752H261.12c-5.632-0.512-15.36-2.56-15.36-25.088 0-2.048 0-3.584-0.512-5.632V291.328h-0.512v-24.064H69.12c-6.656 0-13.824-1.536-15.872-16.896-1.024-46.592-2.048-93.696-2.56-140.288v-20.992c0-32.768 1.024-41.472 1.536-43.52 1.024-1.536 3.584-4.608 11.776-7.168l6.656-1.536h420.352c5.12 0 10.752 2.56 16.896 7.168l1.024 0.512c0.512 0.512 1.024 2.56 1.536 6.656v199.68c0 7.168-2.56 12.8-13.824 15.36l-5.632 1.024H297.472v166.4h134.144V349.696c0-5.12 1.024-10.752 12.8-12.8H860.16c2.048 0 6.656 0 10.752 11.264v199.68c0 2.048-2.56 6.144-8.704 11.264H443.904c-5.632 0-9.728-1.536-12.288-9.728V486.4H297.472v312.832h134.656v-65.536c1.536-3.584 3.584-7.168 6.656-7.68 5.632-0.512 44.032-1.024 135.168-1.024 83.968 0 185.856 0.512 279.04 1.024 11.264 2.048 13.312 6.656 14.336 10.752 0.512 1.536 1.024 9.216 1.536 42.496v32.768c0 29.696-0.512 69.12-1.536 128-5.632 11.264-11.264 11.264-13.312 11.264H438.272z m46.08-54.272h328.192v-117.76H484.352v117.76z m0-390.144h328.192V389.12H484.352v117.76zM109.056 214.528h348.672v-117.76H109.056v117.76z" fill="#454859" p-id="4623"></path></svg>