<svg t="1682643045287" class="icon" viewBox="0 0 1024 1024" version="1.1" xmlns="http://www.w3.org/2000/svg" p-id="10643" width="200" height="200"><path d="M853.333333 955.733333H170.666667c-66.030933 0-102.4-36.369067-102.4-102.4V170.666667c0-66.030933 36.369067-102.4 102.4-102.4h682.666666c66.030933 0 102.4 36.369067 102.4 102.4v682.666666c0 66.030933-36.369067 102.4-102.4 102.4z m-494.933333-34.133333h494.933333c47.223467 0 68.266667-21.0432 68.266667-68.266667v-153.6H358.4v221.866667zM170.666667 102.4c-47.223467 0-68.266667 21.0432-68.266667 68.266667v682.666666c0 47.223467 21.0432 68.266667 68.266667 68.266667h153.6V102.4h-153.6z m187.733333 563.2h563.2V358.4H358.4v307.2z m0-341.333333h563.2v-153.6c0-47.223467-21.0432-68.266667-68.266667-68.266667H358.4v221.866667z" p-id="10644"></path></svg>